<svg xmlns="http://www.w3.org/2000/svg" viewBox="-24.3 -24.3 48.7 48.7" fill="#0f6873"><circle r="2.2"/><ellipse cx="-0.24" cy="-4.49" rx="2.63" ry="1.74" transform="rotate(-93.0 -0.24 -4.49)"/><ellipse cx="-1.02" cy="-10.02" rx="2.63" ry="1.74" transform="rotate(-103.0 -1.02 -10.02)"/><ellipse cx="-2.07" cy="-15.51" rx="2.63" ry="1.74" transform="rotate(-98.7 -2.07 -15.51)"/><ellipse cx="-3.50" cy="-20.90" rx="2.63" ry="1.74" transform="rotate(-111.0 -3.50 -20.90)"/><ellipse cx="-0.64" cy="-20.38" rx="2.63" ry="1.74" transform="rotate(-48.6 -0.64 -20.38)"/><ellipse cx="-2.55" cy="-9.07" rx="2.63" ry="1.74" transform="rotate(-140.6 -2.55 -9.07)"/><ellipse cx="-7.21" cy="-12.12" rx="2.63" ry="1.74" transform="rotate(-152.9 -7.21 -12.12)"/><ellipse cx="-5.17" cy="-13.61" rx="2.63" ry="1.74" transform="rotate(-99.5 -5.17 -13.61)"/><ellipse cx="4.31" cy="-1.31" rx="2.63" ry="1.74" transform="rotate(-16.9 4.31 -1.31)"/><ellipse cx="9.78" cy="-2.32" rx="2.63" ry="1.74" transform="rotate(-4.1 9.78 -2.32)"/><ellipse cx="15.37" cy="-2.53" rx="2.63" ry="1.74" transform="rotate(-0.3 15.37 -2.53)"/><ellipse cx="14.21" cy="-4.78" rx="2.63" ry="1.74" transform="rotate(-54.1 14.21 -4.78)"/><ellipse cx="8.48" cy="-4.49" rx="2.63" ry="1.74" transform="rotate(-57.8 8.48 -4.49)"/><ellipse cx="2.24" cy="3.90" rx="2.63" ry="1.74" transform="rotate(60.2 2.24 3.90)"/><ellipse cx="5.27" cy="8.60" rx="2.63" ry="1.74" transform="rotate(54.1 5.27 8.60)"/><ellipse cx="8.93" cy="12.81" rx="2.63" ry="1.74" transform="rotate(43.9 8.93 12.81)"/><ellipse cx="13.29" cy="16.28" rx="2.63" ry="1.74" transform="rotate(33.0 13.29 16.28)"/><ellipse cx="13.74" cy="14.86" rx="2.63" ry="1.74" transform="rotate(2.1 13.74 14.86)"/><ellipse cx="9.69" cy="11.24" rx="2.63" ry="1.74" transform="rotate(7.6 9.69 11.24)"/><ellipse cx="6.39" cy="6.84" rx="2.63" ry="1.74" transform="rotate(10.4 6.39 6.84)"/><ellipse cx="11.86" cy="8.00" rx="2.63" ry="1.74" transform="rotate(13.8 11.86 8.00)"/><ellipse cx="10.38" cy="9.85" rx="2.63" ry="1.74" transform="rotate(63.8 10.38 9.85)"/><ellipse cx="-2.61" cy="3.67" rx="2.63" ry="1.74" transform="rotate(125.4 -2.61 3.67)"/><ellipse cx="-6.30" cy="7.84" rx="2.63" ry="1.74" transform="rotate(137.5 -6.30 7.84)"/><ellipse cx="-10.29" cy="11.76" rx="2.63" ry="1.74" transform="rotate(133.6 -10.29 11.76)"/><ellipse cx="-8.14" cy="12.52" rx="2.63" ry="1.74" transform="rotate(85.4 -8.14 12.52)"/><ellipse cx="-7.02" cy="6.22" rx="2.63" ry="1.74" transform="rotate(174.5 -7.02 6.22)"/><ellipse cx="-4.10" cy="-1.86" rx="2.63" ry="1.74" transform="rotate(204.4 -4.10 -1.86)"/><ellipse cx="-9.04" cy="-4.46" rx="2.63" ry="1.74" transform="rotate(211.0 -9.04 -4.46)"/><ellipse cx="-13.98" cy="-7.09" rx="2.63" ry="1.74" transform="rotate(204.9 -13.98 -7.09)"/><ellipse cx="-18.71" cy="-10.02" rx="2.63" ry="1.74" transform="rotate(218.7 -18.71 -10.02)"/><ellipse cx="-17.58" cy="-10.86" rx="2.63" ry="1.74" transform="rotate(247.9 -17.58 -10.86)"/><ellipse cx="-12.01" cy="-8.65" rx="2.63" ry="1.74" transform="rotate(258.4 -12.01 -8.65)"/></svg>